<?xml version="1.0" encoding="utf-8"?>
<!-- Generator: Adobe Illustrator 25.0.0, SVG Export Plug-In . SVG Version: 6.00 Build 0)  -->
<svg version="1.1" id="Layer_1" xmlns="http://www.w3.org/2000/svg" xmlns:xlink="http://www.w3.org/1999/xlink" x="0px" y="0px"
	 viewBox="0 0 380 400" style="enable-background:new 0 0 380 400;" xml:space="preserve">
<style type="text/css">
	.st0{fill-rule:evenodd;clip-rule:evenodd;fill:#B28B67;}
	.st1{fill-rule:evenodd;clip-rule:evenodd;fill:#191847;}
	.st2{fill-rule:evenodd;clip-rule:evenodd;fill:#C5CFD6;}
	.st3{fill-rule:evenodd;clip-rule:evenodd;fill-opacity:0.1;}
	.st4{fill-rule:evenodd;clip-rule:evenodd;}
	.st5{fill-rule:evenodd;clip-rule:evenodd;fill:#949494;}
	.st6{fill-rule:evenodd;clip-rule:evenodd;fill:#161616;}
	.st7{fill-rule:evenodd;clip-rule:evenodd;fill:#997659;}
	.st8{fill-rule:evenodd;clip-rule:evenodd;fill:#EFEFEF;}
	.st9{fill-rule:evenodd;clip-rule:evenodd;fill:#FFFFFF;}
</style>
<desc>Created with Sketch.</desc>
<g id="humaaans_x2F_sitting-2">
	
		<g id="A-Human_x2F_Sitting" transform="translate(190.000000, 200.500000) scale(-1, 1) translate(-190.000000, -200.500000) translate(40.000000, 24.000000)">
		<g id="Head_x2F_Front_x2F_Rad" transform="translate(82.000000, 0.000000)">
			<g id="Head" transform="translate(54.000000, 31.000000)">
				<path class="st0" d="M8.3,34.5c-4.6-5.4-7.7-12-7.2-19.5C2.6-6.4,32.3-1.7,38.1,9.1s5.1,38.2-2.4,40.1c-3,0.8-9.3-1.1-15.8-5
					L24,73H0L8.3,34.5z"/>
			</g>
			<path id="hair" class="st1" d="M44.6,38.9C43.8,38.1,43.4,37,43,36c-0.4-1.1-0.7-2.2-1-3.3c-0.5-2.2-0.5-4.8,1.1-6.6
				c1.3-1.4,3.2-2,5-2.2c1.2-0.1,2.4,0.1,3.5,0.4c1.1,0.4,2.1,1.1,3.2,1.6c0-2.4,0.5-5,1.7-7c1.2-2,3.1-3.1,5.2-3.4
				c2.2-0.3,4.4,0.2,6.4,1.3c0.5,0.3,1,0.5,1.5,0.9c0.4,0.3,0.8,0.6,1.3,0.7c0.5,0.1,0.8-0.2,1.1-0.6c0.4-0.4,0.8-0.8,1.3-1.2
				c2.1-1.5,4.8-2.1,7.2-1.2c1.1,0.4,2.2,1.1,2.9,2.1c0.7,0.9,1.1,2.3,2.1,2.9c0.4,0.3,0.7-0.1,1-0.3c0.5-0.4,1-0.8,1.6-1.2
				c0.8-0.5,1.6-0.9,2.5-1.1c1.3-0.3,3.1-0.2,3.4,1.5c0.1,0.6,0,1.3,0,1.9c-0.1,0.9-0.1,1.8-0.2,2.6c-0.1,0.7-0.1,1.3-0.3,2
				c-0.1,0.3-0.3,1-0.1,1.3c0.2,0.4,1,0.2,1.4,0.2c0.7,0,1.5,0.2,2.1,0.5c0.5,0.2,1.1,0.6,1.3,1.2c0.1,0.4,0.1,0.7,0,1.1
				c-0.1,0.5,0,0.7,0.1,1.1c1-0.5,4.3-1.5,4.8,0.2c0.1,0.6-0.2,1.2-0.4,1.7c-0.4,0.9-1,1.6-1.6,2.4c-1.2,1.6-2.6,2.9-4.2,4.1
				c1.8,0.8,2.3,3.2,0.7,4.6c-0.7,0.6-1.6,0.8-2.5,0.7c-0.3,0-0.8-0.1-1-0.1c-0.1,0-0.3,0.1-0.5,0.2c-1.2,0.1-2.6-0.2-3.8-0.5
				c-2.1-0.5-4.2-1.5-5.8-3.1c-0.4-0.4-0.8-0.6-1.4-0.6c-0.5,0-1,0.1-1.5,0.2c-1.3,0-2.5-0.6-3.8-1c-0.1,1.7-0.6,3.5-1.2,5
				c-0.6,1.2-1.7,1.4-2.9,1.5c-3.6,0.3-7.3,0-11,0c3.5,0.8,7.2,1.1,10.7,2.1c1.6,0.4,0.4,1.5-0.3,2.2c-1.1,1.2-1.9,2.7-2.5,4.3
				c-1.7-2.3-4.8-3.7-7.5-3c-3,0.8-5.1,4.8-3.2,7.7c1.1,1.7,3.1,2.3,4.8,3.1c-1.3,1.4-1.6,3.4-2.4,5c-0.4,0.8-0.9,1.8-1.8,2.1
				C59.6,70,59.2,70,59,70.3c-0.3,0.3-0.4,0.7-0.8,1c-1.6,1.1-4.1,1-5.5-0.4c-1.3-1.3-0.9-3.4,0.1-4.7c-1.7-0.7-4.8-1.6-4.1-4.3
				C45,61.6,36.1,55.6,41,51.3c-2.7-1.5-5.2-5.3-3.5-8.6C38.9,40.2,42,39,44.6,38.9"/>
		</g>
		<g id="Bottom_x2F_Sitting_x2F_Skinny-Jeans-1" transform="translate(0.000000, 187.000000)">
			<g id="Objects_x2F_Seat_x2F_Cube" transform="translate(10.000000, 42.000000)">
				<g id="Seat" transform="translate(55.000000, 0.000000)">
					<polygon id="Seat-Stuff" class="st2" points="27.6,0 104.9,0 115,124 0,124 					"/>
					<polygon id="Seat-Stuff_1_" class="st3" points="27.6,0 51.4,0 65.6,124 0,124 					"/>
				</g>
			</g>
			<path id="Skin" class="st0" d="M258,20.8c8.2-4.9,22.1,1.4,22,8.5c0,21.2-19.3,120.9-20.4,127.2c-1,6.3-11.8,8-12.4,0
				c-1-12.7-2.9-56.4-1-76.7c0.8-8.4,1.6-16.3,2.4-23.4c-10.1,18.3-25.8,44.5-47,78.6l-11.5-5.3c9-29.8,16.5-50.8,22.2-63.1
				c9.9-21,19.2-39,23.1-45.4C241.6,11.2,252.3,14.7,258,20.8z"/>
			<path id="LegLower" class="st4" d="M190.9,113.1l39.5-93.6c9.5-15.2,36,3.1,32.8,11.9c-7.3,20.1-44.6,85-46.8,91L190.9,113.1z"/>
			
				<g id="Accessories_x2F_Shoe_x2F_Flat-Sneaker" transform="translate(215.500000, 133.000000) rotate(30.000000) translate(-215.500000, -133.000000) translate(185.000000, 113.000000)">
				<path id="shoe" class="st5" d="M2.7,25.4c-1.1,3-1.7,5.2-1.7,6.7c0,1.8,0.3,4.4,0.9,7.9c2.1,0,20.9,0,56.4,0
					c1.5-4.8,0.6-7.5-2.5-7.8c-3.2-0.4-5.8-0.7-7.9-1L21.7,19.4c-0.5-0.2-1.1,0-1.3,0.5c0,0,0,0,0,0L18.7,24c-2.9,1.4-5.3,2-7.1,2
					c-1.5,0-3.5-0.6-6.2-1.8l0,0c-1-0.5-2.2,0-2.7,1C2.7,25.3,2.7,25.4,2.7,25.4z"/>
			</g>
			<g id="Accessories_x2F_Shoe_x2F_Flat-Sneaker_1_" transform="translate(242.000000, 126.000000)">
				<path id="shoe_1_" class="st5" d="M2.7,25.4c-1.1,3-1.7,5.2-1.7,6.7c0,1.8,0.3,4.4,0.9,7.9c2.1,0,20.9,0,56.4,0
					c1.5-4.8,0.6-7.5-2.5-7.8c-3.2-0.4-5.8-0.7-7.9-1L21.7,19.4c-0.5-0.2-1.1,0-1.3,0.5c0,0,0,0,0,0L18.7,24c-2.9,1.4-5.3,2-7.1,2
					c-1.5,0-3.5-0.6-6.2-1.8l0,0c-1-0.5-2.2,0-2.7,1C2.7,25.3,2.7,25.4,2.7,25.4z"/>
			</g>
			<path id="Leg-and-Butt" class="st6" d="M282.8,36.4c0,26.6-13,88.5-13,94.4l-27.9,0c4.1-55.3,5.5-83.2,4.3-83.8
				c-1.8-0.9-72.9,6.9-94.3,6.9c-30.8,0-43.5-18.9-44.5-53.9h61c12.4,1.3,77.2,14,101.2,18.4C279.9,20.3,282.8,29.1,282.8,36.4z"/>
		</g>
		<g id="Body_x2F_Pointing-Forward" transform="translate(22.000000, 82.000000)">
			<path id="Skin_1_" class="st7" d="M158.6,42.7l34.7-19c5.8-6.9,11.5-12.2,17.1-16c1.7-0.7,4.7-1.1,1.9,3.8
				c-2.8,5-5.5,10.3-4.1,11.9c1.4,1.5,5-0.6,6.7,1.9c1.1,1.7-4.9,4.4-18.2,8l-25.2,23.1L158.6,42.7z M213,58.7l15.2-8.4
				c2.1-8.1,4.7-12.2,7.7-12.3c2.3-1.1-1.7,9.2,2.6,8.3s14.9-8.8,16.7-7.2c2.7,2.4,0.3,9.6-2.5,13.2c-5.3,6.7-9.7,9.1-20.5,12.1
				c-5.7,1.6-11.8,4.7-18.4,9.5L213,58.7z"/>
			<path id="Sleeve" class="st8" d="M141.7,38.5c12.2-0.1,28.4-2.7,45.7-13.7l6.8,15.1c-11.9,11.8-28.7,21.6-43.4,21.2
				C139.3,60.8,133.3,46.8,141.7,38.5z"/>
			<path id="Clothes" class="st9" d="M158.1,62.8C171,66,192.7,62.2,223,51.4c7.5,15.6,11,26.7,10.5,33.3
				c-26.1,13.6-48.4,19.7-66.8,20.1c0.6,10.9-0.7,21.3-5.2,30.8c-9.2,19.5-62.9,1.4-81,5C69.2,103.9,91,88.9,91.1,65.4
				C91.1,39.6,111.8,0,114.8,0h27.7C144.1,19.7,151.8,41.3,158.1,62.8z"/>
		</g>
	</g>
</g>
</svg>
